<mxfile host="app.diagrams.net" modified="2023-09-19T18:52:16.785Z" agent="Mozilla/5.0 (Windows NT 10.0; Win64; x64) AppleWebKit/537.36 (KHTML, like Gecko) Chrome/116.0.0.0 Safari/537.36 Avast/116.0.0.0" version="21.7.3" etag="w_7tDIInvxpKWGusXO93" type="github">
  <diagram name="Page-1" id="BGw1GosHMC7QUVjOv-4X">
    <mxGraphModel>
      <root>
        <mxCell id="0" />
        <mxCell id="1" parent="0" />
      </root>
    </mxGraphModel>
  </diagram>
</mxfile>
